<mxfile host="app.diagrams.net" modified="2022-09-27T07:55:51.985Z" agent="5.0 (Windows NT 10.0; Win64; x64) AppleWebKit/537.36 (KHTML, like Gecko) Chrome/105.0.0.0 Safari/537.36" etag="3CfQ4Mmxhyvy-lUkuGT2" version="20.3.6" type="github">
  <diagram id="g9qfzgHPebZQgW2fT0E4" name="Page-1">
    <mxGraphModel dx="870" dy="626" grid="1" gridSize="10" guides="1" tooltips="1" connect="1" arrows="1" fold="1" page="1" pageScale="1" pageWidth="827" pageHeight="1169" math="0" shadow="0">
      <root>
        <mxCell id="0" />
        <mxCell id="1" parent="0" />
        <mxCell id="8kjbvUu87JB6cAuW_LZx-5" value="" style="rounded=1;orthogonalLoop=1;jettySize=auto;html=1;exitX=1;exitY=0;exitDx=0;exitDy=0;entryX=0;entryY=0.5;entryDx=0;entryDy=0;shape=flexArrow;edgeStyle=orthogonalEdgeStyle;" edge="1" parent="1" source="8kjbvUu87JB6cAuW_LZx-1" target="8kjbvUu87JB6cAuW_LZx-2">
          <mxGeometry relative="1" as="geometry">
            <Array as="points">
              <mxPoint x="462" y="100" />
            </Array>
          </mxGeometry>
        </mxCell>
        <mxCell id="8kjbvUu87JB6cAuW_LZx-9" value="" style="edgeStyle=orthogonalEdgeStyle;shape=flexArrow;rounded=1;orthogonalLoop=1;jettySize=auto;html=1;exitX=0;exitY=0;exitDx=0;exitDy=0;entryX=1;entryY=0.5;entryDx=0;entryDy=0;" edge="1" parent="1" source="8kjbvUu87JB6cAuW_LZx-1" target="8kjbvUu87JB6cAuW_LZx-4">
          <mxGeometry relative="1" as="geometry">
            <Array as="points">
              <mxPoint x="378" y="100" />
            </Array>
          </mxGeometry>
        </mxCell>
        <mxCell id="8kjbvUu87JB6cAuW_LZx-10" value="" style="edgeStyle=orthogonalEdgeStyle;shape=flexArrow;rounded=1;orthogonalLoop=1;jettySize=auto;html=1;exitX=0;exitY=1;exitDx=0;exitDy=0;entryX=0;entryY=0;entryDx=0;entryDy=0;" edge="1" parent="1" source="8kjbvUu87JB6cAuW_LZx-1" target="8kjbvUu87JB6cAuW_LZx-3">
          <mxGeometry relative="1" as="geometry" />
        </mxCell>
        <mxCell id="8kjbvUu87JB6cAuW_LZx-1" value="Default" style="ellipse;whiteSpace=wrap;html=1;aspect=fixed;fillColor=#dae8fc;strokeColor=#6c8ebf;" vertex="1" parent="1">
          <mxGeometry x="360" y="200" width="120" height="120" as="geometry" />
        </mxCell>
        <mxCell id="8kjbvUu87JB6cAuW_LZx-6" value="" style="edgeStyle=orthogonalEdgeStyle;shape=flexArrow;rounded=1;orthogonalLoop=1;jettySize=auto;html=1;exitX=0.5;exitY=1;exitDx=0;exitDy=0;entryX=1;entryY=0.5;entryDx=0;entryDy=0;" edge="1" parent="1" source="8kjbvUu87JB6cAuW_LZx-2" target="8kjbvUu87JB6cAuW_LZx-1">
          <mxGeometry relative="1" as="geometry" />
        </mxCell>
        <mxCell id="8kjbvUu87JB6cAuW_LZx-2" value="Random Position" style="ellipse;whiteSpace=wrap;html=1;aspect=fixed;fillColor=#d5e8d4;strokeColor=#82b366;" vertex="1" parent="1">
          <mxGeometry x="600" y="40" width="120" height="120" as="geometry" />
        </mxCell>
        <mxCell id="8kjbvUu87JB6cAuW_LZx-11" style="edgeStyle=orthogonalEdgeStyle;shape=flexArrow;rounded=1;orthogonalLoop=1;jettySize=auto;html=1;exitX=1;exitY=0;exitDx=0;exitDy=0;entryX=1;entryY=1;entryDx=0;entryDy=0;" edge="1" parent="1" source="8kjbvUu87JB6cAuW_LZx-3" target="8kjbvUu87JB6cAuW_LZx-1">
          <mxGeometry relative="1" as="geometry" />
        </mxCell>
        <mxCell id="8kjbvUu87JB6cAuW_LZx-3" value="Ball Follow" style="ellipse;whiteSpace=wrap;html=1;aspect=fixed;fillColor=#e1d5e7;strokeColor=#9673a6;" vertex="1" parent="1">
          <mxGeometry x="360" y="440" width="120" height="120" as="geometry" />
        </mxCell>
        <mxCell id="8kjbvUu87JB6cAuW_LZx-8" style="edgeStyle=orthogonalEdgeStyle;shape=flexArrow;rounded=1;orthogonalLoop=1;jettySize=auto;html=1;exitX=0.5;exitY=1;exitDx=0;exitDy=0;entryX=0;entryY=0.5;entryDx=0;entryDy=0;" edge="1" parent="1" source="8kjbvUu87JB6cAuW_LZx-4" target="8kjbvUu87JB6cAuW_LZx-1">
          <mxGeometry relative="1" as="geometry" />
        </mxCell>
        <mxCell id="8kjbvUu87JB6cAuW_LZx-4" value="Predicted&lt;br&gt;Intersection" style="ellipse;whiteSpace=wrap;html=1;aspect=fixed;fillColor=#ffe6cc;strokeColor=#d79b00;" vertex="1" parent="1">
          <mxGeometry x="120" y="40" width="120" height="120" as="geometry" />
        </mxCell>
        <mxCell id="8kjbvUu87JB6cAuW_LZx-12" value="Reached target height" style="text;html=1;align=center;verticalAlign=middle;whiteSpace=wrap;rounded=1;glass=0;fillColor=default;" vertex="1" parent="1">
          <mxGeometry x="590" y="270" width="140" height="30" as="geometry" />
        </mxCell>
        <mxCell id="8kjbvUu87JB6cAuW_LZx-14" value="Random" style="text;html=1;align=center;verticalAlign=middle;whiteSpace=wrap;rounded=1;glass=0;fillColor=default;" vertex="1" parent="1">
          <mxGeometry x="290" y="60" width="60" height="30" as="geometry" />
        </mxCell>
        <mxCell id="8kjbvUu87JB6cAuW_LZx-15" value="Random" style="text;html=1;align=center;verticalAlign=middle;whiteSpace=wrap;rounded=1;glass=0;fillColor=default;" vertex="1" parent="1">
          <mxGeometry x="490" y="60" width="60" height="30" as="geometry" />
        </mxCell>
        <mxCell id="8kjbvUu87JB6cAuW_LZx-16" value="Random" style="text;html=1;align=center;verticalAlign=middle;whiteSpace=wrap;rounded=1;glass=0;fillColor=default;" vertex="1" parent="1">
          <mxGeometry x="310" y="360" width="60" height="30" as="geometry" />
        </mxCell>
        <mxCell id="8kjbvUu87JB6cAuW_LZx-17" value="Hit/missed the ball&lt;span style=&quot;color: rgba(0, 0, 0, 0); font-family: monospace; font-size: 0px; text-align: start;&quot;&gt;%3CmxGraphModel%3E%3Croot%3E%3CmxCell%20id%3D%220%22%2F%3E%3CmxCell%20id%3D%221%22%20parent%3D%220%22%2F%3E%3CmxCell%20id%3D%222%22%20value%3D%22Reached%20target%20height%22%20style%3D%22text%3Bhtml%3D1%3Balign%3Dcenter%3BverticalAlign%3Dmiddle%3BwhiteSpace%3Dwrap%3Brounded%3D1%3Bglass%3D0%3BfillColor%3Ddefault%3B%22%20vertex%3D%221%22%20parent%3D%221%22%3E%3CmxGeometry%20x%3D%22590%22%20y%3D%22270%22%20width%3D%22140%22%20height%3D%2230%22%20as%3D%22geometry%22%2F%3E%3C%2FmxCell%3E%3C%2Froot%3E%3C%2FmxGraphModel%3E&lt;/span&gt;" style="text;html=1;align=center;verticalAlign=middle;whiteSpace=wrap;rounded=1;glass=0;fillColor=default;" vertex="1" parent="1">
          <mxGeometry x="160" y="270" width="140" height="30" as="geometry" />
        </mxCell>
        <mxCell id="8kjbvUu87JB6cAuW_LZx-18" value="Followed ball for set time" style="text;html=1;align=center;verticalAlign=middle;whiteSpace=wrap;rounded=1;glass=0;fillColor=default;" vertex="1" parent="1">
          <mxGeometry x="480" y="360" width="140" height="30" as="geometry" />
        </mxCell>
      </root>
    </mxGraphModel>
  </diagram>
</mxfile>
